# xmcd
#
# Track frame offsets:
#	182
#	16437
#	33510
#	54630
#	67365
#	86082
#	97492
#	106167
#	123775
#	140065
#	161900
#	169027
#
# Disc length: 4145 seconds
#
# Revision: 43511201
# Processed by: cddbd v1.5.2PL0 Copyright (c) Steve Scherf et al.
# Submitted via: Jack! The Knife 17 Overdose
#
DISCID=b1102f0c
DTITLE=Nirvana - In Utero
DYEAR=1993
DGENRE=Grunge
TTITLE0=Serve The Servants
TTITLE1=Scentless Apprentice
TTITLE2=Heart-Shaped Box
TTITLE3=Rape Me
TTITLE4=Frances Farmer Will Have Her Revenge On Seattle
TTITLE5=Dumb
TTITLE6=Very Ape
TTITLE7=Milk It
TTITLE8=Pennyroyal Tea
TTITLE9=Radio Friendly Unit Shifter
TTITLE10=Tourette's
TTITLE11=All Apologies
EXTD=Steve Albini
EXTT0=Kurt Cobain
EXTT1=Cobain, Grohl, Novoselic
EXTT2=Kurt Cobain
EXTT3=Kurt Cobain
EXTT4=Kurt Cobain
EXTT5=Kurt Cobain
EXTT6=Kurt Cobain
EXTT7=Kurt Cobain
EXTT8=Kurt Cobain
EXTT9=Kurt Cobain
EXTT10=Kurt Cobain
EXTT11=Kurt Cobain
PLAYORDER=
